<svg xmlns="http://www.w3.org/2000/svg" viewBox="0 0 698.58 1045.17"><defs><style>.cls-1{fill:#ffc200;}</style></defs><title>Logo Black</title><g id="Layer_2" data-name="Layer 2"><g id="Layer_21" data-name="Layer 21"><g id="hand_right" data-name="hand right"><path d="M244.08,976.14h-3.44q-1,19.27-8.09,27.82t-21.44,8.54q-12.34,0-18.51-4.91A21.7,21.7,0,0,1,184.71,995,92.2,92.2,0,0,1,183,975.42v-10l-.2-18q-.2-4.18-.2-11.09A74.11,74.11,0,0,1,183.5,923q.91-4.64,3.34-6.64a11,11,0,0,1,7.28-2.36,11.31,11.31,0,0,1,6.17,1.73,5.13,5.13,0,0,1,2.73,4.45q0,10,.4,31.09l.2,22.72q0,10.54,1.82,14.54a6.1,6.1,0,0,0,5.87,4q3.84,0,6-3.91t2.33-12.82a9.41,9.41,0,0,1-5.26-3.27,9.24,9.24,0,0,1-1.82-5.82q0-5.09,3.84-7.18a19,19,0,0,1,7.79-2.36q3.94-.27,13.25-.27h6.68Z"/><path d="M267.55,956.87v19.27H236.8V956.87Z"/><path d="M287.78,956.87v19.27H257V956.87Z"/><path d="M342.8,923.06q0,19.82-1.31,29.82t-4.55,14.54a20.53,20.53,0,0,1-8.09,7.09q-4.45,2-12.74,2a29.1,29.1,0,0,1-14.36-3.27q-4.66,2.91-15.37,2.91h-8.29V956.87h7.69a7.54,7.54,0,0,0,2.93-.36q.71-.36.81-2.82t.1-6.82q-.61-10.36-.61-31.09,0-39.81,4.25-46.72a20.25,20.25,0,0,1,8.5-8.27q5.05-2.46,13.15-2.45,26.7,0,27.31,28.36Q342.8,908.51,342.8,923.06Zm-22.46,33q.81-1.54,1.11-7.54t.3-20.73V900.7q0-10.91-.4-15.82t-1.62-6.82a4.22,4.22,0,0,0-3.84-1.91,3.28,3.28,0,0,0-3.14,1.64q-.91,1.64-1.21,6.73t-.3,12.36q0,15.27-.4,26.54-.2,6-.2,15.09a94.73,94.73,0,0,0,.61,12.63q.61,4.09,2,5.27a6.49,6.49,0,0,0,4.25,1.18A2.92,2.92,0,0,0,320.35,956.05Z"/><path d="M407.94,976l-.2,43q-.2,2.73-.2,6.18,0,7.27-3.84,10.82t-12.75,4.64q-6.68.54-11.33.54a61.15,61.15,0,0,1-14.16-1.27,8.28,8.28,0,0,1-5.06-3.91,12.18,12.18,0,0,1-2-6.64,7.81,7.81,0,0,1,1.62-5.09,9.66,9.66,0,0,1,7.49-3.09,18.91,18.91,0,0,1,5.06.73,32.69,32.69,0,0,0,8.29.73l5.66-.18q0-1.46.2-4.27t.2-7.73v-35q-25.29-1.64-29.54-6-3.24-3.09-4.55-19.73t-1.32-37.91q0-21.45.81-28.36,1.21-12,6.47-16.36,9.3-7.64,26.1-7.64a75.41,75.41,0,0,1,18.41,2.18q5.26,1.27,5.26,15.09l-.2,6.73a35.08,35.08,0,0,0-.2,4.18l-.2,50.54v18.73h11.73v19.27Zm-21-19.63-.2-77.81q-3.64-.36-5.46-.36-6.68,0-7.69,1.64-.61-.36-.61,20.91,0,17.45.4,35.18t.81,18.45Q374.76,955.24,386.9,956.33Z"/><path d="M440.71,956.87v19.27H410V956.87Z"/><path d="M460.94,956.87v19.27H430.19V956.87Z"/><path d="M516,869.15a112.62,112.62,0,0,1,1.21,19q0,6-.4,20.91-.41,17.09-.4,27.09,0,19.09-1.52,29.54t-7.18,10.45H451.23V956.87h43.29q.2-2.73.2-4.82v-3.18A67.36,67.36,0,0,1,482.79,950q-11.94,0-17-4.73-3.24-2.91-4.55-14.27a225.12,225.12,0,0,1-1.32-25.72,205.74,205.74,0,0,1,.81-21.63Q462,871.43,467,867.24q9.3-7.81,27.11-7.82,10.72,0,17.6,2.18Q514.75,862.52,516,869.15Zm-34.79,28.63q0,11.27.3,21.91t.91,11.18a12.76,12.76,0,0,0,4.55,3.09q2.12.73,7.79.73l.2-56.18a18.4,18.4,0,0,0-6.27-1.09q-4.85,0-6.68,2.36Q481.17,879.61,481.17,897.79Z"/><rect class="cls-1" x="463.92" y="823.26" width="53.26" height="18.74" rx="9.37" ry="9.37"/><path class="cls-1" d="M226.47,1045.17H192a13.37,13.37,0,0,1,0-26.74h34.52a13.37,13.37,0,1,1,0,26.74ZM192,1026.43a5.37,5.37,0,0,0,0,10.74h34.52a5.37,5.37,0,1,0,0-10.74Z"/></g></g><g id="Layer_20" data-name="Layer 20"><path d="M510.3,458.32c44.31-14.94,47.28-46.6,48.87-63.61,2.82-30.13,6-82.92,8.46-125.33,1.51-25.57,2.71-45.76,3.42-53.75,1.32-14.88-17.36-26.94-31.94-33.6-3,47.19-9.28,110.88-10.3,147.51-2,71.93-10,75.37-31.85,86.46-14.33,7.26-59.16,25-59.16,25,.91,10,1.61,26.49,2.12,42.58C454.36,478.3,493.86,463.86,510.3,458.32Z"/><path d="M537.92,122.48c3.27,3.27,3.24,23,1.77,49.87,15.08,6.39,42.46,21.21,40.43,44.08-.7,7.86-1.89,28-3.4,53.49-2.52,42.48-5.65,95.36-8.49,125.65-1.53,16.32-5.11,54.55-55,71.39-17.59,5.93-61.92,22.18-73,26.24.56,20.23.82,37.61.82,37.61s63.21-20.21,117.36-39.72c46.83-16.87,47.21-51.38,50.06-75.08,7.2-60,18.2-241.18,18.2-241.18C628.93,154.34,537.92,122.48,537.92,122.48Z"/><path d="M188.13,458.32c-44.31-14.94-47.28-46.6-48.87-63.61-2.82-30.13-6-82.92-8.46-125.33-1.51-25.57-2.71-45.76-3.42-53.75-1.32-14.88,17.36-26.94,31.94-33.6,3,47.19,9.28,110.88,10.3,147.51,2,71.93,10,75.37,31.85,86.46,14.33,7.26,59.16,25,59.16,25-.91,10-1.61,26.49-2.12,42.58C244.07,478.3,204.57,463.86,188.13,458.32Z"/><path d="M160.51,122.48c-3.27,3.27-3.24,23-1.77,49.87-15.08,6.39-42.46,21.21-40.43,44.08.7,7.86,1.89,28,3.4,53.49,2.52,42.48,5.65,95.36,8.49,125.65,1.53,16.32,5.11,54.55,55,71.39,17.59,5.93,61.92,22.18,73,26.24-.56,20.23-.82,37.61-.82,37.61S194.18,510.58,140,491.07C93.2,474.2,92.82,439.69,90,416c-7.2-60-18.2-241.18-18.2-241.18C69.5,154.34,160.51,122.48,160.51,122.48Z"/><path d="M388.18,460.13c0-1.36-.09-2.69-.14-4l-34,10.31V604.87C392.59,589.68,390,512.13,388.18,460.13Z"/><path d="M427.87,444.05l-29.68,9c.07,2.2.15,4.44.23,6.74,1.93,56.48,4.79,141.33-44.41,155.89V666s32.71-5.37,59.49-35.55C438.38,602.37,432.12,483.87,427.87,444.05Z"/><path d="M309.92,460.13c0-1.36.09-2.69.14-4l34,10.31V604.87C305.51,589.68,308.14,512.13,309.92,460.13Z"/><path d="M270.23,444.05l29.68,9c-.07,2.2-.15,4.44-.23,6.74-1.93,56.48-4.79,141.33,44.41,155.89V666s-32.71-5.37-59.49-35.55C259.71,602.37,266,483.87,270.23,444.05Z"/><polygon points="397.52 329.13 395.62 309.35 401 308.84 403.19 331.6 403.23 331.66 361.35 362.1 358.17 357.73 397.52 329.13"/><polygon points="300.62 329.13 302.52 309.35 297.15 308.84 294.95 331.6 294.91 331.66 336.8 362.1 339.97 357.73 300.62 329.13"/><circle cx="349.07" cy="772.07" r="51.19"/><path d="M467.81,650.52l-41.08-71.28-5.91,3.41,41.09,71.26L406.5,708a85.27,85.27,0,0,1,28.33,53.24h6.88a91.91,91.91,0,0,0-25.47-53.35l50.43-49.11A6.81,6.81,0,0,0,467.81,650.52Z"/><path d="M236.89,653.91,278,582.65l-5.91-3.41L231,650.52a6.81,6.81,0,0,0,1.15,8.28l51.28,49.93a91.87,91.87,0,0,0-24.69,52.53h6.88A85.24,85.24,0,0,1,293,708.87Z"/><path d="M414.83,401.69l-65.76,28.24L284.8,400.35a43.64,43.64,0,0,0-14.5,33.84l78.78,23.32,78.78-23.32C428.42,412.29,414.83,401.69,414.83,401.69Z"/><path d="M403.68,395.51l-54.61,25-54.61-25s11.38-11.38,52.33-11.38S403.68,395.51,403.68,395.51Z"/><path d="M326.32,354.56h45.5l13.65,25S374.1,375,349.07,375s-36.4,4.55-36.4,4.55Z"/><path d="M239.25,347.09l17.36-51.78,2.15-6.14a132.44,132.44,0,0,1-32-48.37h-7.28a139,139,0,0,0,32.32,51L233,348.1l.08,0,52.3,61.18,4.11-3.51Z"/><path d="M480.91,240.8h-7.28a132.41,132.41,0,0,1-31.41,47.81l.14.44-.28.09,19.43,57.95-50.19,58.7,4.11,3.51,52.3-61.18.08,0-19-56.53A139,139,0,0,0,480.91,240.8Z"/><circle cx="350.21" cy="194.93" r="92.02"/><path class="cls-1" d="M696.87,117.81h0l-.48-.84-.14-.25c-46.3-82.28-174-134-226-111.39,25.54-1.41,67.35,106.1,67.35,106.1S592.73,128.31,628,157l.66-.37c4.77,7.29,7.5,15.56,6.68,24.8-.94,10.67-2.56,38-4.61,72.62-3.41,57.68-7,119.64-10.81,160.76-2.08,22.16-2.94,70.06-70.7,92.91-23.89,8.06-93.3,26.45-108.33,32-.68,26.36-4,38.7-4,38.7s96.16-7.42,169.68-33.91c63.58-22.91,64.1-69.76,68-101.94,9.78-81.51,24-317.61,24-317.61A12.25,12.25,0,0,0,696.87,117.81Z"/><path class="cls-1" d="M1.72,117.81h0l.48-.84.14-.25c46.3-82.28,174-134,226-111.39C202.81,3.9,161,111.41,161,111.41S105.86,128.31,70.58,157l-.66-.37c-4.77,7.29-7.5,15.56-6.68,24.8.94,10.67,2.56,38,4.61,72.62,3.41,57.68,7,119.64,10.81,160.76,2.08,22.16,2.94,70.06,70.7,92.91,23.89,8.06,93.3,26.45,108.33,32,.68,26.36,4,38.7,4,38.7S165.54,570.95,92,544.46c-63.58-22.91-64.1-69.76-68-101.94C14.28,361,.06,124.91.06,124.91A12.25,12.25,0,0,1,1.72,117.81Z"/></g></g></svg>